<svg width="500" height="500" viewBox="0 0 500 500" fill="none" xmlns="http://www.w3.org/2000/svg">
<rect width="500" height="500" fill="url(#paint0_linear_23_2)"/>
<path d="M205.437 281.485L219.548 218.944H276.856L268.776 255.221H274.593L279.98 231.216L283.965 255.221C286.12 255.221 288.059 255.652 289.997 256.297L283.319 215.716C283.104 214.316 281.918 213.348 280.518 213.348H263.93V208.826C263.93 203.982 259.944 200 255.097 200H242.171C237.324 200 233.339 203.983 233.339 208.826V213.348H217.179C215.887 213.348 214.702 214.316 214.379 215.608L199.082 283.747C198.867 284.608 199.082 285.47 199.621 286.115C200.159 286.761 201.021 287.191 201.883 287.191H224.827L224.288 281.486L205.437 281.485ZM239.153 208.718C239.153 206.996 240.553 205.597 242.276 205.597H255.202C256.926 205.597 258.326 206.996 258.326 208.718V213.239H239.152L239.153 208.718Z" fill="#F5F5F5"/>
<path d="M261.775 245.424V245.21C261.775 243.703 260.59 242.518 259.19 242.518H244.109V231.323C244.109 230.247 243.247 229.278 242.063 229.278C240.986 229.278 240.017 230.14 240.017 231.323V242.626H224.936C223.428 242.626 222.351 243.81 222.351 245.317V245.532C222.351 247.039 223.536 248.116 224.936 248.116H258.975C260.59 248.008 261.775 246.824 261.775 245.424Z" fill="#F5F5F5"/>
<path d="M252.188 292.895C252.188 294.725 252.834 296.448 254.127 297.739C255.42 299.139 257.358 300 259.297 300H291.182C295.06 300 298.183 296.771 298.183 292.895V291.173H252.189L252.188 292.895Z" fill="#F5F5F5"/>
<path d="M266.946 259.742C263.391 259.742 259.944 261.034 257.251 263.402C254.02 266.2 252.188 270.183 252.188 274.489V275.888H298.185V274.489C298.185 266.415 291.614 259.742 283.428 259.742H266.946ZM265.114 272.444C264.037 272.444 263.283 271.583 263.283 270.507C263.283 269.43 264.145 268.677 265.114 268.677C266.191 268.677 267.053 269.538 267.053 270.507C266.946 271.583 266.192 272.444 265.114 272.444ZM270.177 267.6C269.1 267.6 268.238 266.738 268.238 265.662C268.238 264.586 269.1 263.725 270.177 263.725C271.254 263.725 272.116 264.586 272.116 265.662C272.008 266.739 271.255 267.6 270.177 267.6ZM275.241 272.444C274.164 272.444 273.41 271.583 273.41 270.507C273.41 269.43 274.271 268.677 275.241 268.677C276.318 268.677 277.179 269.538 277.179 270.507C277.072 271.583 276.21 272.444 275.241 272.444ZM280.303 267.6C279.227 267.6 278.365 266.738 278.365 265.662C278.365 264.586 279.227 263.725 280.303 263.725C281.38 263.725 282.242 264.586 282.242 265.662C282.135 266.739 281.273 267.6 280.303 267.6ZM285.366 268.677C286.443 268.677 287.305 269.538 287.305 270.507C287.305 271.583 286.443 272.444 285.366 272.444C284.289 272.444 283.535 271.583 283.535 270.507C283.427 269.537 284.288 268.677 285.366 268.677Z" fill="#F5F5F5"/>
<path d="M298.83 280.408H251.649C250.249 280.408 249.172 281.484 249.172 282.883V283.959C249.172 285.359 250.249 286.435 251.649 286.435H298.83C300.231 286.435 301.308 285.359 301.308 283.959V282.883C301.308 281.485 300.23 280.408 298.83 280.408H298.83Z" fill="#F5F5F5"/>
<path d="M247.664 289.88C245.833 288.588 244.54 286.435 244.54 284.067V282.991C244.54 280.516 245.833 278.363 247.664 277.178V274.595C247.664 268.998 250.034 263.723 254.235 260.063C255.204 259.202 256.281 258.448 257.358 257.802L257.789 252.636H226.227L230.213 297.2C230.321 298.815 231.613 299.998 233.23 299.998H250.141C248.633 297.953 247.663 295.584 247.663 293.002L247.664 289.88Z" fill="#F5F5F5"/>
<path d="M205.437 281.485L219.548 218.944H276.856L268.776 255.221H274.593L279.98 231.216L283.965 255.221C286.12 255.221 288.059 255.652 289.997 256.297L283.319 215.716C283.104 214.316 281.918 213.348 280.518 213.348H263.93V208.826C263.93 203.982 259.944 200 255.097 200H242.171C237.324 200 233.339 203.983 233.339 208.826V213.348H217.179C215.887 213.348 214.702 214.316 214.379 215.608L199.082 283.747C198.867 284.608 199.082 285.47 199.621 286.115C200.159 286.761 201.021 287.191 201.883 287.191H224.827L224.288 281.486L205.437 281.485ZM239.153 208.718C239.153 206.996 240.553 205.597 242.276 205.597H255.202C256.926 205.597 258.326 206.996 258.326 208.718V213.239H239.152L239.153 208.718Z" stroke="#F5F5F5" stroke-width="2"/>
<path d="M261.775 245.424V245.21C261.775 243.703 260.59 242.518 259.19 242.518H244.109V231.323C244.109 230.247 243.247 229.278 242.063 229.278C240.986 229.278 240.017 230.14 240.017 231.323V242.626H224.936C223.428 242.626 222.351 243.81 222.351 245.317V245.532C222.351 247.039 223.536 248.116 224.936 248.116H258.975C260.59 248.008 261.775 246.824 261.775 245.424Z" stroke="#F5F5F5" stroke-width="2"/>
<path d="M252.188 292.895C252.188 294.725 252.834 296.448 254.127 297.739C255.42 299.139 257.358 300 259.297 300H291.182C295.06 300 298.183 296.771 298.183 292.895V291.173H252.189L252.188 292.895Z" stroke="#F5F5F5" stroke-width="2"/>
<path d="M266.946 259.742C263.391 259.742 259.944 261.034 257.251 263.402C254.02 266.2 252.188 270.183 252.188 274.489V275.888H298.185V274.489C298.185 266.415 291.614 259.742 283.428 259.742H266.946ZM265.114 272.444C264.037 272.444 263.283 271.583 263.283 270.507C263.283 269.43 264.145 268.677 265.114 268.677C266.191 268.677 267.053 269.538 267.053 270.507C266.946 271.583 266.192 272.444 265.114 272.444ZM270.177 267.6C269.1 267.6 268.238 266.738 268.238 265.662C268.238 264.586 269.1 263.725 270.177 263.725C271.254 263.725 272.116 264.586 272.116 265.662C272.008 266.739 271.255 267.6 270.177 267.6ZM275.241 272.444C274.164 272.444 273.41 271.583 273.41 270.507C273.41 269.43 274.271 268.677 275.241 268.677C276.318 268.677 277.179 269.538 277.179 270.507C277.072 271.583 276.21 272.444 275.241 272.444ZM280.303 267.6C279.227 267.6 278.365 266.738 278.365 265.662C278.365 264.586 279.227 263.725 280.303 263.725C281.38 263.725 282.242 264.586 282.242 265.662C282.135 266.739 281.273 267.6 280.303 267.6ZM285.366 268.677C286.443 268.677 287.305 269.538 287.305 270.507C287.305 271.583 286.443 272.444 285.366 272.444C284.289 272.444 283.535 271.583 283.535 270.507C283.427 269.537 284.288 268.677 285.366 268.677Z" stroke="#F5F5F5" stroke-width="2"/>
<path d="M298.83 280.408H251.649C250.249 280.408 249.172 281.484 249.172 282.883V283.959C249.172 285.359 250.249 286.435 251.649 286.435H298.83C300.231 286.435 301.308 285.359 301.308 283.959V282.883C301.308 281.485 300.23 280.408 298.83 280.408H298.83Z" stroke="#F5F5F5" stroke-width="2"/>
<path d="M247.664 289.88C245.833 288.588 244.54 286.435 244.54 284.067V282.991C244.54 280.516 245.833 278.363 247.664 277.178V274.595C247.664 268.998 250.034 263.723 254.235 260.063C255.204 259.202 256.281 258.448 257.358 257.802L257.789 252.636H226.227L230.213 297.2C230.321 298.815 231.613 299.998 233.23 299.998H250.141C248.633 297.953 247.663 295.584 247.663 293.002L247.664 289.88Z" stroke="#F5F5F5" stroke-width="2"/>
<defs>
<linearGradient id="paint0_linear_23_2" x1="0" y1="500" x2="500" y2="0" gradientUnits="userSpaceOnUse">
<stop stop-color="#48CAE4"/>
<stop offset="1" stop-color="#32DADB"/>
</linearGradient>
</defs>
</svg>
