<svg width="135" height="132" viewBox="0 0 135 132" fill="none" xmlns="http://www.w3.org/2000/svg">
<path d="M9.36761 106.931L27.7122 25.6277H102.212L91.7092 72.7872H99.2713L106.273 41.581L111.455 72.7872C114.256 72.7872 116.776 73.347 119.297 74.1861L110.614 21.4302C110.335 19.6111 108.794 18.3518 106.974 18.3518H85.4086V12.4743C85.4086 6.17691 80.2271 1 73.9262 1H57.1225C50.8207 1 45.6401 6.17779 45.6401 12.4743V18.3518H24.6331C22.9525 18.3518 21.4127 19.6111 20.9925 21.2905L1.10709 109.871C0.827571 110.991 1.10709 112.11 1.80706 112.95C2.50703 113.789 3.62741 114.348 4.74783 114.348H34.5745L33.8745 106.931L9.36761 106.931ZM53.1983 12.3338C53.1983 10.0946 55.0187 8.27562 57.2594 8.27562H74.0631C76.3039 8.27562 78.1242 10.0947 78.1242 12.3338V18.2113H53.198L53.1983 12.3338Z" fill="url(#paint0_linear_3_42)"/>
<path d="M82.6081 60.0518V59.7725C82.6081 57.8137 81.0672 56.2739 79.2469 56.2739H59.6421V41.7201C59.6421 40.3211 58.5217 39.0618 56.982 39.0618C55.5821 39.0618 54.3219 40.1815 54.3219 41.7201V56.4137H34.7171C32.757 56.4137 31.3559 57.9534 31.3559 59.9122V60.1915C31.3559 62.1503 32.8968 63.5503 34.7171 63.5503H78.9677C81.0665 63.4107 82.6081 61.8709 82.6081 60.0518Z" fill="url(#paint1_linear_3_42)"/>
<path d="M70.1446 121.764C70.1446 124.143 70.9843 126.382 72.6649 128.061C74.3455 129.88 76.8658 131 79.386 131H120.836C125.878 131 129.938 126.802 129.938 121.764V119.525H70.1459L70.1446 121.764Z" fill="url(#paint2_linear_3_42)"/>
<path d="M89.3292 78.6644C84.7078 78.6644 80.2274 80.3438 76.7264 83.4223C72.5255 87.0603 70.1449 92.2384 70.1449 97.8352V99.6543H129.94V97.8352C129.94 87.3396 121.398 78.6644 110.756 78.6644H89.3292ZM86.9486 95.177C85.5487 95.177 84.5681 94.0574 84.5681 92.6585C84.5681 91.2596 85.6885 90.2796 86.9486 90.2796C88.3486 90.2796 89.4689 91.3992 89.4689 92.6585C89.3292 94.0574 88.3497 95.177 86.9486 95.177ZM93.5302 88.8796C92.1302 88.8796 91.0099 87.76 91.0099 86.3611C91.0099 84.9622 92.1303 83.8426 93.5302 83.8426C94.9301 83.8426 96.0505 84.9622 96.0505 86.3611C95.9107 87.7601 94.9312 88.8796 93.5302 88.8796ZM100.113 95.177C98.713 95.177 97.7324 94.0574 97.7324 92.6585C97.7324 91.2596 98.8528 90.2796 100.113 90.2796C101.513 90.2796 102.633 91.3992 102.633 92.6585C102.493 94.0574 101.373 95.177 100.113 95.177ZM106.694 88.8796C105.295 88.8796 104.174 87.76 104.174 86.3611C104.174 84.9622 105.295 83.8426 106.694 83.8426C108.094 83.8426 109.215 84.9622 109.215 86.3611C109.075 87.7601 107.955 88.8796 106.694 88.8796ZM113.276 90.2797C114.676 90.2797 115.796 91.3994 115.796 92.6586C115.796 94.0576 114.676 95.1772 113.276 95.1772C111.876 95.1772 110.895 94.0576 110.895 92.6586C110.756 91.3982 111.875 90.2797 113.276 90.2797Z" fill="url(#paint3_linear_3_42)"/>
<path d="M130.78 105.53H69.4438C67.6234 105.53 66.2234 106.929 66.2234 108.748V110.147C66.2234 111.966 67.6233 113.365 69.4438 113.365H130.78C132.6 113.365 134 111.966 134 110.147V108.748C134 106.93 132.599 105.53 130.778 105.53H130.78Z" fill="url(#paint4_linear_3_42)"/>
<path d="M64.2632 117.844C61.8826 116.165 60.2022 113.366 60.2022 110.288V108.889C60.2022 105.671 61.8828 102.872 64.2632 101.332V97.9732C64.2632 90.6969 67.3438 83.8396 72.8049 79.0817C74.0651 77.962 75.465 76.9821 76.866 76.143L77.4262 69.4266H36.3957L41.5771 127.359C41.7169 129.459 43.3975 130.997 45.4986 130.997H67.4829C65.5228 128.339 64.2625 125.26 64.2625 121.902L64.2632 117.844Z" fill="url(#paint5_linear_3_42)"/>
<path d="M9.36761 106.931L27.7122 25.6277H102.212L91.7092 72.7872H99.2713L106.273 41.581L111.455 72.7872C114.256 72.7872 116.776 73.347 119.297 74.1861L110.614 21.4302C110.335 19.6111 108.794 18.3518 106.974 18.3518H85.4086V12.4743C85.4086 6.17691 80.2271 1 73.9262 1H57.1225C50.8207 1 45.6401 6.17779 45.6401 12.4743V18.3518H24.6331C22.9525 18.3518 21.4127 19.6111 20.9925 21.2905L1.10709 109.871C0.827571 110.991 1.10709 112.11 1.80706 112.95C2.50703 113.789 3.62741 114.348 4.74783 114.348H34.5745L33.8745 106.931L9.36761 106.931ZM53.1983 12.3338C53.1983 10.0946 55.0187 8.27562 57.2594 8.27562H74.0631C76.3039 8.27562 78.1242 10.0947 78.1242 12.3338V18.2113H53.198L53.1983 12.3338Z" stroke="url(#paint6_linear_3_42)" stroke-width="2"/>
<path d="M82.6081 60.0518V59.7725C82.6081 57.8137 81.0672 56.2739 79.2469 56.2739H59.6421V41.7201C59.6421 40.3211 58.5217 39.0618 56.982 39.0618C55.5821 39.0618 54.3219 40.1815 54.3219 41.7201V56.4137H34.7171C32.757 56.4137 31.3559 57.9534 31.3559 59.9122V60.1915C31.3559 62.1503 32.8968 63.5503 34.7171 63.5503H78.9677C81.0665 63.4107 82.6081 61.8709 82.6081 60.0518Z" stroke="url(#paint7_linear_3_42)" stroke-width="2"/>
<path d="M70.1446 121.764C70.1446 124.143 70.9843 126.382 72.6649 128.061C74.3455 129.88 76.8658 131 79.386 131H120.836C125.878 131 129.938 126.802 129.938 121.764V119.525H70.1459L70.1446 121.764Z" stroke="url(#paint8_linear_3_42)" stroke-width="2"/>
<path d="M89.3292 78.6644C84.7078 78.6644 80.2274 80.3438 76.7264 83.4223C72.5255 87.0603 70.1449 92.2384 70.1449 97.8352V99.6543H129.94V97.8352C129.94 87.3396 121.398 78.6644 110.756 78.6644H89.3292ZM86.9486 95.177C85.5487 95.177 84.5681 94.0574 84.5681 92.6585C84.5681 91.2596 85.6885 90.2796 86.9486 90.2796C88.3486 90.2796 89.4689 91.3992 89.4689 92.6585C89.3292 94.0574 88.3497 95.177 86.9486 95.177ZM93.5302 88.8796C92.1302 88.8796 91.0099 87.76 91.0099 86.3611C91.0099 84.9622 92.1303 83.8426 93.5302 83.8426C94.9301 83.8426 96.0505 84.9622 96.0505 86.3611C95.9107 87.7601 94.9312 88.8796 93.5302 88.8796ZM100.113 95.177C98.713 95.177 97.7324 94.0574 97.7324 92.6585C97.7324 91.2596 98.8528 90.2796 100.113 90.2796C101.513 90.2796 102.633 91.3992 102.633 92.6585C102.493 94.0574 101.373 95.177 100.113 95.177ZM106.694 88.8796C105.295 88.8796 104.174 87.76 104.174 86.3611C104.174 84.9622 105.295 83.8426 106.694 83.8426C108.094 83.8426 109.215 84.9622 109.215 86.3611C109.075 87.7601 107.955 88.8796 106.694 88.8796ZM113.276 90.2797C114.676 90.2797 115.796 91.3994 115.796 92.6586C115.796 94.0576 114.676 95.1772 113.276 95.1772C111.876 95.1772 110.895 94.0576 110.895 92.6586C110.756 91.3982 111.875 90.2797 113.276 90.2797Z" stroke="url(#paint9_linear_3_42)" stroke-width="2"/>
<path d="M130.78 105.53H69.4438C67.6234 105.53 66.2234 106.929 66.2234 108.748V110.147C66.2234 111.966 67.6233 113.365 69.4438 113.365H130.78C132.6 113.365 134 111.966 134 110.147V108.748C134 106.93 132.599 105.53 130.778 105.53H130.78Z" stroke="url(#paint10_linear_3_42)" stroke-width="2"/>
<path d="M64.2632 117.844C61.8826 116.165 60.2022 113.366 60.2022 110.288V108.889C60.2022 105.671 61.8828 102.872 64.2632 101.332V97.9732C64.2632 90.6969 67.3438 83.8396 72.8049 79.0817C74.0651 77.962 75.465 76.9821 76.866 76.143L77.4262 69.4266H36.3957L41.5771 127.359C41.7169 129.459 43.3975 130.997 45.4986 130.997H67.4829C65.5228 128.339 64.2625 125.26 64.2625 121.902L64.2632 117.844Z" stroke="url(#paint11_linear_3_42)" stroke-width="2"/>
<defs>
<linearGradient id="paint0_linear_3_42" x1="1" y1="66" x2="134" y2="66" gradientUnits="userSpaceOnUse">
<stop stop-color="#48CAE4"/>
<stop offset="1" stop-color="#32DADB"/>
</linearGradient>
<linearGradient id="paint1_linear_3_42" x1="1" y1="66" x2="134" y2="66" gradientUnits="userSpaceOnUse">
<stop stop-color="#48CAE4"/>
<stop offset="1" stop-color="#32DADB"/>
</linearGradient>
<linearGradient id="paint2_linear_3_42" x1="1" y1="66" x2="134" y2="66" gradientUnits="userSpaceOnUse">
<stop stop-color="#48CAE4"/>
<stop offset="1" stop-color="#32DADB"/>
</linearGradient>
<linearGradient id="paint3_linear_3_42" x1="1" y1="66" x2="134" y2="66" gradientUnits="userSpaceOnUse">
<stop stop-color="#48CAE4"/>
<stop offset="1" stop-color="#32DADB"/>
</linearGradient>
<linearGradient id="paint4_linear_3_42" x1="1" y1="66" x2="134" y2="66" gradientUnits="userSpaceOnUse">
<stop stop-color="#48CAE4"/>
<stop offset="1" stop-color="#32DADB"/>
</linearGradient>
<linearGradient id="paint5_linear_3_42" x1="1" y1="66" x2="134" y2="66" gradientUnits="userSpaceOnUse">
<stop stop-color="#48CAE4"/>
<stop offset="1" stop-color="#32DADB"/>
</linearGradient>
<linearGradient id="paint6_linear_3_42" x1="1" y1="66" x2="134" y2="66" gradientUnits="userSpaceOnUse">
<stop stop-color="#48CAE4"/>
<stop offset="1" stop-color="#32DADB"/>
</linearGradient>
<linearGradient id="paint7_linear_3_42" x1="1" y1="66" x2="134" y2="66" gradientUnits="userSpaceOnUse">
<stop stop-color="#48CAE4"/>
<stop offset="1" stop-color="#32DADB"/>
</linearGradient>
<linearGradient id="paint8_linear_3_42" x1="1" y1="66" x2="134" y2="66" gradientUnits="userSpaceOnUse">
<stop stop-color="#48CAE4"/>
<stop offset="1" stop-color="#32DADB"/>
</linearGradient>
<linearGradient id="paint9_linear_3_42" x1="1" y1="66" x2="134" y2="66" gradientUnits="userSpaceOnUse">
<stop stop-color="#48CAE4"/>
<stop offset="1" stop-color="#32DADB"/>
</linearGradient>
<linearGradient id="paint10_linear_3_42" x1="1" y1="66" x2="134" y2="66" gradientUnits="userSpaceOnUse">
<stop stop-color="#48CAE4"/>
<stop offset="1" stop-color="#32DADB"/>
</linearGradient>
<linearGradient id="paint11_linear_3_42" x1="1" y1="66" x2="134" y2="66" gradientUnits="userSpaceOnUse">
<stop stop-color="#48CAE4"/>
<stop offset="1" stop-color="#32DADB"/>
</linearGradient>
</defs>
</svg>
