<svg width="1052" height="132" viewBox="0 0 1052 132" fill="none" xmlns="http://www.w3.org/2000/svg">
<path d="M207.1 100V40.3H186.7V30H240.4V40.3H219.9V100H207.1ZM245.582 100V28H258.382V58C260.049 55.2667 262.282 53.1333 265.082 51.6C267.949 50 271.215 49.2 274.882 49.2C281.015 49.2 285.749 51.1333 289.082 55C292.482 58.8667 294.182 64.5333 294.182 72V100H281.482V73.2C281.482 68.9333 280.615 65.6667 278.882 63.4C277.215 61.1333 274.549 60 270.882 60C267.282 60 264.282 61.2667 261.882 63.8C259.549 66.3333 258.382 69.8667 258.382 74.4V100H245.582ZM326.522 101.2C321.522 101.2 317.089 100.133 313.222 98C309.355 95.8667 306.322 92.8667 304.122 89C301.922 85.1333 300.822 80.6667 300.822 75.6C300.822 70.4667 301.889 65.9 304.022 61.9C306.222 57.9 309.222 54.8 313.022 52.6C316.889 50.3333 321.422 49.2 326.622 49.2C331.489 49.2 335.789 50.2667 339.522 52.4C343.255 54.5333 346.155 57.4667 348.222 61.2C350.355 64.8667 351.422 68.9667 351.422 73.5C351.422 74.2333 351.389 75 351.322 75.8C351.322 76.6 351.289 77.4333 351.222 78.3H313.522C313.789 82.1667 315.122 85.2 317.522 87.4C319.989 89.6 322.955 90.7 326.422 90.7C329.022 90.7 331.189 90.1333 332.922 89C334.722 87.8 336.055 86.2667 336.922 84.4H349.922C348.989 87.5333 347.422 90.4 345.222 93C343.089 95.5333 340.422 97.5333 337.222 99C334.089 100.467 330.522 101.2 326.522 101.2ZM326.622 59.6C323.489 59.6 320.722 60.5 318.322 62.3C315.922 64.0333 314.389 66.7 313.722 70.3H338.422C338.222 67.0333 337.022 64.4333 334.822 62.5C332.622 60.5667 329.889 59.6 326.622 59.6ZM378.316 100V30H423.516V40.3H391.116V59.9H417.316V70H391.116V100H378.316ZM450.257 101.2C445.457 101.2 441.124 100.1 437.257 97.9C433.457 95.7 430.424 92.6667 428.157 88.8C425.957 84.8667 424.857 80.3333 424.857 75.2C424.857 70.0667 425.99 65.5667 428.257 61.7C430.524 57.7667 433.557 54.7 437.357 52.5C441.224 50.3 445.557 49.2 450.357 49.2C455.09 49.2 459.357 50.3 463.157 52.5C467.024 54.7 470.057 57.7667 472.257 61.7C474.524 65.5667 475.657 70.0667 475.657 75.2C475.657 80.3333 474.524 84.8667 472.257 88.8C470.057 92.6667 467.024 95.7 463.157 97.9C459.29 100.1 454.99 101.2 450.257 101.2ZM450.257 90.1C453.59 90.1 456.49 88.8667 458.957 86.4C461.424 83.8667 462.657 80.1333 462.657 75.2C462.657 70.2667 461.424 66.5667 458.957 64.1C456.49 61.5667 453.624 60.3 450.357 60.3C446.957 60.3 444.024 61.5667 441.557 64.1C439.157 66.5667 437.957 70.2667 437.957 75.2C437.957 80.1333 439.157 83.8667 441.557 86.4C444.024 88.8667 446.924 90.1 450.257 90.1ZM506.902 101.2C502.102 101.2 497.768 100.1 493.902 97.9C490.102 95.7 487.068 92.6667 484.802 88.8C482.602 84.8667 481.502 80.3333 481.502 75.2C481.502 70.0667 482.635 65.5667 484.902 61.7C487.168 57.7667 490.202 54.7 494.002 52.5C497.868 50.3 502.202 49.2 507.002 49.2C511.735 49.2 516.002 50.3 519.802 52.5C523.668 54.7 526.702 57.7667 528.902 61.7C531.168 65.5667 532.302 70.0667 532.302 75.2C532.302 80.3333 531.168 84.8667 528.902 88.8C526.702 92.6667 523.668 95.7 519.802 97.9C515.935 100.1 511.635 101.2 506.902 101.2ZM506.902 90.1C510.235 90.1 513.135 88.8667 515.602 86.4C518.068 83.8667 519.302 80.1333 519.302 75.2C519.302 70.2667 518.068 66.5667 515.602 64.1C513.135 61.5667 510.268 60.3 507.002 60.3C503.602 60.3 500.668 61.5667 498.202 64.1C495.802 66.5667 494.602 70.2667 494.602 75.2C494.602 80.1333 495.802 83.8667 498.202 86.4C500.668 88.8667 503.568 90.1 506.902 90.1ZM562.546 101.2C557.879 101.2 553.713 100.067 550.046 97.8C546.379 95.5333 543.479 92.4333 541.346 88.5C539.213 84.5667 538.146 80.1 538.146 75.1C538.146 70.1 539.213 65.6667 541.346 61.8C543.479 57.8667 546.379 54.8 550.046 52.6C553.713 50.3333 557.879 49.2 562.546 49.2C566.279 49.2 569.546 49.9 572.346 51.3C575.146 52.7 577.413 54.6667 579.146 57.2V28H591.946V100H580.546L579.146 92.9C577.546 95.1 575.413 97.0333 572.746 98.7C570.146 100.367 566.746 101.2 562.546 101.2ZM565.246 90C569.379 90 572.746 88.6333 575.346 85.9C578.013 83.1 579.346 79.5333 579.346 75.2C579.346 70.8667 578.013 67.3333 575.346 64.6C572.746 61.8 569.379 60.4 565.246 60.4C561.179 60.4 557.813 61.7667 555.146 64.5C552.479 67.2333 551.146 70.7667 551.146 75.1C551.146 79.4333 552.479 83 555.146 85.8C557.813 88.6 561.179 90 565.246 90ZM607.88 42.7C605.547 42.7 603.614 42 602.08 40.6C600.614 39.2 599.88 37.4333 599.88 35.3C599.88 33.1667 600.614 31.4333 602.08 30.1C603.614 28.7 605.547 28 607.88 28C610.214 28 612.114 28.7 613.58 30.1C615.114 31.4333 615.88 33.1667 615.88 35.3C615.88 37.4333 615.114 39.2 613.58 40.6C612.114 42 610.214 42.7 607.88 42.7ZM601.48 100V50.4H614.28V100H601.48ZM647.741 101.2C642.741 101.2 638.307 100.133 634.441 98C630.574 95.8667 627.541 92.8667 625.341 89C623.141 85.1333 622.041 80.6667 622.041 75.6C622.041 70.4667 623.107 65.9 625.241 61.9C627.441 57.9 630.441 54.8 634.241 52.6C638.107 50.3333 642.641 49.2 647.841 49.2C652.707 49.2 657.007 50.2667 660.741 52.4C664.474 54.5333 667.374 57.4667 669.441 61.2C671.574 64.8667 672.641 68.9667 672.641 73.5C672.641 74.2333 672.607 75 672.541 75.8C672.541 76.6 672.507 77.4333 672.441 78.3H634.741C635.007 82.1667 636.341 85.2 638.741 87.4C641.207 89.6 644.174 90.7 647.641 90.7C650.241 90.7 652.407 90.1333 654.141 89C655.941 87.8 657.274 86.2667 658.141 84.4H671.141C670.207 87.5333 668.641 90.4 666.441 93C664.307 95.5333 661.641 97.5333 658.441 99C655.307 100.467 651.741 101.2 647.741 101.2ZM647.841 59.6C644.707 59.6 641.941 60.5 639.541 62.3C637.141 64.0333 635.607 66.7 634.941 70.3H659.641C659.441 67.0333 658.241 64.4333 656.041 62.5C653.841 60.5667 651.107 59.6 647.841 59.6ZM699.534 100V30H745.234V40.3H712.334V59.5H742.234V69.5H712.334V89.7H745.234V100H699.534ZM748.347 100L766.347 75.2L748.347 50.4H762.047L774.647 68L787.147 50.4H800.947L782.847 75.2L800.947 100H787.147L774.647 82.4L762.047 100H748.347ZM805.102 122V50.4H816.502L817.902 57.5C819.502 55.3 821.602 53.3667 824.202 51.7C826.868 50.0333 830.302 49.2 834.502 49.2C839.168 49.2 843.335 50.3333 847.002 52.6C850.668 54.8667 853.568 57.9667 855.702 61.9C857.835 65.8333 858.902 70.3 858.902 75.3C858.902 80.3 857.835 84.7667 855.702 88.7C853.568 92.5667 850.668 95.6333 847.002 97.9C843.335 100.1 839.168 101.2 834.502 101.2C830.768 101.2 827.502 100.5 824.702 99.1C821.902 97.7 819.635 95.7333 817.902 93.2V122H805.102ZM831.802 90C835.868 90 839.235 88.6333 841.902 85.9C844.568 83.1667 845.902 79.6333 845.902 75.3C845.902 70.9667 844.568 67.4 841.902 64.6C839.235 61.8 835.868 60.4 831.802 60.4C827.668 60.4 824.268 61.8 821.602 64.6C819.002 67.3333 817.702 70.8667 817.702 75.2C817.702 79.5333 819.002 83.1 821.602 85.9C824.268 88.6333 827.668 90 831.802 90ZM866.336 100V50.4H877.736L878.936 59.7C880.736 56.5 883.169 53.9667 886.236 52.1C889.369 50.1667 893.036 49.2 897.236 49.2V62.7H893.636C890.836 62.7 888.336 63.1333 886.136 64C883.936 64.8667 882.203 66.3667 880.936 68.5C879.736 70.6333 879.136 73.6 879.136 77.4V100H866.336ZM925.205 101.2C920.205 101.2 915.772 100.133 911.905 98C908.039 95.8667 905.005 92.8667 902.805 89C900.605 85.1333 899.505 80.6667 899.505 75.6C899.505 70.4667 900.572 65.9 902.705 61.9C904.905 57.9 907.905 54.8 911.705 52.6C915.572 50.3333 920.105 49.2 925.305 49.2C930.172 49.2 934.472 50.2667 938.205 52.4C941.939 54.5333 944.839 57.4667 946.905 61.2C949.039 64.8667 950.105 68.9667 950.105 73.5C950.105 74.2333 950.072 75 950.005 75.8C950.005 76.6 949.972 77.4333 949.905 78.3H912.205C912.472 82.1667 913.805 85.2 916.205 87.4C918.672 89.6 921.639 90.7 925.105 90.7C927.705 90.7 929.872 90.1333 931.605 89C933.405 87.8 934.739 86.2667 935.605 84.4H948.605C947.672 87.5333 946.105 90.4 943.905 93C941.772 95.5333 939.105 97.5333 935.905 99C932.772 100.467 929.205 101.2 925.205 101.2ZM925.305 59.6C922.172 59.6 919.405 60.5 917.005 62.3C914.605 64.0333 913.072 66.7 912.405 70.3H937.105C936.905 67.0333 935.705 64.4333 933.505 62.5C931.305 60.5667 928.572 59.6 925.305 59.6ZM977.371 101.2C972.971 101.2 969.104 100.5 965.771 99.1C962.438 97.6333 959.771 95.6333 957.771 93.1C955.771 90.5667 954.571 87.6333 954.171 84.3H967.071C967.471 86.2333 968.538 87.9 970.271 89.3C972.071 90.6333 974.371 91.3 977.171 91.3C979.971 91.3 982.004 90.7333 983.271 89.6C984.604 88.4667 985.271 87.1667 985.271 85.7C985.271 83.5667 984.338 82.1333 982.471 81.4C980.604 80.6 978.004 79.8333 974.671 79.1C972.538 78.6333 970.371 78.0667 968.171 77.4C965.971 76.7333 963.938 75.9 962.071 74.9C960.271 73.8333 958.804 72.5 957.671 70.9C956.538 69.2333 955.971 67.2 955.971 64.8C955.971 60.4 957.704 56.7 961.171 53.7C964.704 50.7 969.638 49.2 975.971 49.2C981.838 49.2 986.504 50.5667 989.971 53.3C993.504 56.0333 995.604 59.8 996.271 64.6H984.171C983.438 60.9333 980.671 59.1 975.871 59.1C973.471 59.1 971.604 59.5667 970.271 60.5C969.004 61.4333 968.371 62.6 968.371 64C968.371 65.4667 969.338 66.6333 971.271 67.5C973.204 68.3667 975.771 69.1667 978.971 69.9C982.438 70.7 985.604 71.6 988.471 72.6C991.404 73.5333 993.738 74.9667 995.471 76.9C997.204 78.7667 998.071 81.4667 998.071 85C998.138 88.0667 997.338 90.8333 995.671 93.3C994.004 95.7667 991.604 97.7 988.471 99.1C985.338 100.5 981.638 101.2 977.371 101.2ZM1025.91 101.2C1021.51 101.2 1017.64 100.5 1014.31 99.1C1010.98 97.6333 1008.31 95.6333 1006.31 93.1C1004.31 90.5667 1003.11 87.6333 1002.71 84.3H1015.61C1016.01 86.2333 1017.08 87.9 1018.81 89.3C1020.61 90.6333 1022.91 91.3 1025.71 91.3C1028.51 91.3 1030.54 90.7333 1031.81 89.6C1033.14 88.4667 1033.81 87.1667 1033.81 85.7C1033.81 83.5667 1032.88 82.1333 1031.01 81.4C1029.14 80.6 1026.54 79.8333 1023.21 79.1C1021.08 78.6333 1018.91 78.0667 1016.71 77.4C1014.51 76.7333 1012.48 75.9 1010.61 74.9C1008.81 73.8333 1007.34 72.5 1006.21 70.9C1005.08 69.2333 1004.51 67.2 1004.51 64.8C1004.51 60.4 1006.24 56.7 1009.71 53.7C1013.24 50.7 1018.18 49.2 1024.51 49.2C1030.38 49.2 1035.04 50.5667 1038.51 53.3C1042.04 56.0333 1044.14 59.8 1044.81 64.6H1032.71C1031.98 60.9333 1029.21 59.1 1024.41 59.1C1022.01 59.1 1020.14 59.5667 1018.81 60.5C1017.54 61.4333 1016.91 62.6 1016.91 64C1016.91 65.4667 1017.88 66.6333 1019.81 67.5C1021.74 68.3667 1024.31 69.1667 1027.51 69.9C1030.98 70.7 1034.14 71.6 1037.01 72.6C1039.94 73.5333 1042.28 74.9667 1044.01 76.9C1045.74 78.7667 1046.61 81.4667 1046.61 85C1046.68 88.0667 1045.88 90.8333 1044.21 93.3C1042.54 95.7667 1040.14 97.7 1037.01 99.1C1033.88 100.5 1030.18 101.2 1025.91 101.2Z" fill="black"/>
<path d="M9.36761 106.931L27.7122 25.6277H102.212L91.7092 72.7872H99.2713L106.273 41.581L111.455 72.7872C114.256 72.7872 116.776 73.347 119.297 74.1861L110.614 21.4302C110.335 19.6111 108.794 18.3518 106.974 18.3518H85.4086V12.4743C85.4086 6.17691 80.2271 1 73.9262 1H57.1225C50.8207 1 45.6401 6.17779 45.6401 12.4743V18.3518H24.6331C22.9525 18.3518 21.4127 19.6111 20.9925 21.2905L1.10709 109.871C0.827571 110.991 1.10709 112.11 1.80706 112.95C2.50703 113.789 3.62741 114.348 4.74783 114.348H34.5745L33.8745 106.931L9.36761 106.931ZM53.1983 12.3338C53.1983 10.0946 55.0187 8.27562 57.2594 8.27562H74.0631C76.3039 8.27562 78.1242 10.0947 78.1242 12.3338V18.2113H53.198L53.1983 12.3338Z" fill="url(#paint0_linear_3_41)"/>
<path d="M82.6081 60.0518V59.7725C82.6081 57.8137 81.0672 56.2739 79.2469 56.2739H59.6421V41.7201C59.6421 40.3211 58.5217 39.0618 56.982 39.0618C55.5821 39.0618 54.3219 40.1815 54.3219 41.7201V56.4137H34.7171C32.757 56.4137 31.3559 57.9534 31.3559 59.9122V60.1915C31.3559 62.1503 32.8968 63.5503 34.7171 63.5503H78.9677C81.0665 63.4107 82.6081 61.8709 82.6081 60.0518Z" fill="url(#paint1_linear_3_41)"/>
<path d="M70.1446 121.764C70.1446 124.143 70.9843 126.382 72.6649 128.061C74.3455 129.88 76.8658 131 79.386 131H120.836C125.878 131 129.938 126.802 129.938 121.764V119.525H70.1459L70.1446 121.764Z" fill="url(#paint2_linear_3_41)"/>
<path d="M89.3292 78.6644C84.7078 78.6644 80.2274 80.3438 76.7264 83.4223C72.5255 87.0603 70.1449 92.2384 70.1449 97.8352V99.6543H129.94V97.8352C129.94 87.3396 121.398 78.6644 110.756 78.6644H89.3292ZM86.9486 95.177C85.5487 95.177 84.5681 94.0574 84.5681 92.6585C84.5681 91.2596 85.6885 90.2796 86.9486 90.2796C88.3486 90.2796 89.4689 91.3992 89.4689 92.6585C89.3292 94.0574 88.3497 95.177 86.9486 95.177ZM93.5302 88.8796C92.1302 88.8796 91.0099 87.76 91.0099 86.3611C91.0099 84.9622 92.1303 83.8426 93.5302 83.8426C94.9301 83.8426 96.0505 84.9622 96.0505 86.3611C95.9107 87.7601 94.9312 88.8796 93.5302 88.8796ZM100.113 95.177C98.713 95.177 97.7324 94.0574 97.7324 92.6585C97.7324 91.2596 98.8528 90.2796 100.113 90.2796C101.513 90.2796 102.633 91.3992 102.633 92.6585C102.493 94.0574 101.373 95.177 100.113 95.177ZM106.694 88.8796C105.295 88.8796 104.174 87.76 104.174 86.3611C104.174 84.9622 105.295 83.8426 106.694 83.8426C108.094 83.8426 109.215 84.9622 109.215 86.3611C109.075 87.7601 107.955 88.8796 106.694 88.8796ZM113.276 90.2797C114.676 90.2797 115.796 91.3994 115.796 92.6586C115.796 94.0576 114.676 95.1772 113.276 95.1772C111.876 95.1772 110.895 94.0576 110.895 92.6586C110.756 91.3982 111.875 90.2797 113.276 90.2797Z" fill="url(#paint3_linear_3_41)"/>
<path d="M130.78 105.53H69.4438C67.6234 105.53 66.2234 106.929 66.2234 108.748V110.147C66.2234 111.966 67.6233 113.365 69.4438 113.365H130.78C132.6 113.365 134 111.966 134 110.147V108.748C134 106.93 132.599 105.53 130.778 105.53H130.78Z" fill="url(#paint4_linear_3_41)"/>
<path d="M64.2632 117.844C61.8826 116.165 60.2022 113.366 60.2022 110.288V108.889C60.2022 105.671 61.8828 102.872 64.2632 101.332V97.9732C64.2632 90.6969 67.3438 83.8396 72.8049 79.0817C74.0651 77.962 75.465 76.9821 76.866 76.143L77.4262 69.4266H36.3957L41.5771 127.359C41.7169 129.459 43.3975 130.997 45.4986 130.997H67.4829C65.5228 128.339 64.2625 125.26 64.2625 121.902L64.2632 117.844Z" fill="url(#paint5_linear_3_41)"/>
<path d="M9.36761 106.931L27.7122 25.6277H102.212L91.7092 72.7872H99.2713L106.273 41.581L111.455 72.7872C114.256 72.7872 116.776 73.347 119.297 74.1861L110.614 21.4302C110.335 19.6111 108.794 18.3518 106.974 18.3518H85.4086V12.4743C85.4086 6.17691 80.2271 1 73.9262 1H57.1225C50.8207 1 45.6401 6.17779 45.6401 12.4743V18.3518H24.6331C22.9525 18.3518 21.4127 19.6111 20.9925 21.2905L1.10709 109.871C0.827571 110.991 1.10709 112.11 1.80706 112.95C2.50703 113.789 3.62741 114.348 4.74783 114.348H34.5745L33.8745 106.931L9.36761 106.931ZM53.1983 12.3338C53.1983 10.0946 55.0187 8.27562 57.2594 8.27562H74.0631C76.3039 8.27562 78.1242 10.0947 78.1242 12.3338V18.2113H53.198L53.1983 12.3338Z" stroke="url(#paint6_linear_3_41)" stroke-width="2"/>
<path d="M82.6081 60.0518V59.7725C82.6081 57.8137 81.0672 56.2739 79.2469 56.2739H59.6421V41.7201C59.6421 40.3211 58.5217 39.0618 56.982 39.0618C55.5821 39.0618 54.3219 40.1815 54.3219 41.7201V56.4137H34.7171C32.757 56.4137 31.3559 57.9534 31.3559 59.9122V60.1915C31.3559 62.1503 32.8968 63.5503 34.7171 63.5503H78.9677C81.0665 63.4107 82.6081 61.8709 82.6081 60.0518Z" stroke="url(#paint7_linear_3_41)" stroke-width="2"/>
<path d="M70.1446 121.764C70.1446 124.143 70.9843 126.382 72.6649 128.061C74.3455 129.88 76.8658 131 79.386 131H120.836C125.878 131 129.938 126.802 129.938 121.764V119.525H70.1459L70.1446 121.764Z" stroke="url(#paint8_linear_3_41)" stroke-width="2"/>
<path d="M89.3292 78.6644C84.7078 78.6644 80.2274 80.3438 76.7264 83.4223C72.5255 87.0603 70.1449 92.2384 70.1449 97.8352V99.6543H129.94V97.8352C129.94 87.3396 121.398 78.6644 110.756 78.6644H89.3292ZM86.9486 95.177C85.5487 95.177 84.5681 94.0574 84.5681 92.6585C84.5681 91.2596 85.6885 90.2796 86.9486 90.2796C88.3486 90.2796 89.4689 91.3992 89.4689 92.6585C89.3292 94.0574 88.3497 95.177 86.9486 95.177ZM93.5302 88.8796C92.1302 88.8796 91.0099 87.76 91.0099 86.3611C91.0099 84.9622 92.1303 83.8426 93.5302 83.8426C94.9301 83.8426 96.0505 84.9622 96.0505 86.3611C95.9107 87.7601 94.9312 88.8796 93.5302 88.8796ZM100.113 95.177C98.713 95.177 97.7324 94.0574 97.7324 92.6585C97.7324 91.2596 98.8528 90.2796 100.113 90.2796C101.513 90.2796 102.633 91.3992 102.633 92.6585C102.493 94.0574 101.373 95.177 100.113 95.177ZM106.694 88.8796C105.295 88.8796 104.174 87.76 104.174 86.3611C104.174 84.9622 105.295 83.8426 106.694 83.8426C108.094 83.8426 109.215 84.9622 109.215 86.3611C109.075 87.7601 107.955 88.8796 106.694 88.8796ZM113.276 90.2797C114.676 90.2797 115.796 91.3994 115.796 92.6586C115.796 94.0576 114.676 95.1772 113.276 95.1772C111.876 95.1772 110.895 94.0576 110.895 92.6586C110.756 91.3982 111.875 90.2797 113.276 90.2797Z" stroke="url(#paint9_linear_3_41)" stroke-width="2"/>
<path d="M130.78 105.53H69.4438C67.6234 105.53 66.2234 106.929 66.2234 108.748V110.147C66.2234 111.966 67.6233 113.365 69.4438 113.365H130.78C132.6 113.365 134 111.966 134 110.147V108.748C134 106.93 132.599 105.53 130.778 105.53H130.78Z" stroke="url(#paint10_linear_3_41)" stroke-width="2"/>
<path d="M64.2632 117.844C61.8826 116.165 60.2022 113.366 60.2022 110.288V108.889C60.2022 105.671 61.8828 102.872 64.2632 101.332V97.9732C64.2632 90.6969 67.3438 83.8396 72.8049 79.0817C74.0651 77.962 75.465 76.9821 76.866 76.143L77.4262 69.4266H36.3957L41.5771 127.359C41.7169 129.459 43.3975 130.997 45.4986 130.997H67.4829C65.5228 128.339 64.2625 125.26 64.2625 121.902L64.2632 117.844Z" stroke="url(#paint11_linear_3_41)" stroke-width="2"/>
<defs>
<linearGradient id="paint0_linear_3_41" x1="1" y1="66" x2="134" y2="66" gradientUnits="userSpaceOnUse">
<stop stop-color="#48CAE4"/>
<stop offset="1" stop-color="#32DADB"/>
</linearGradient>
<linearGradient id="paint1_linear_3_41" x1="1" y1="66" x2="134" y2="66" gradientUnits="userSpaceOnUse">
<stop stop-color="#48CAE4"/>
<stop offset="1" stop-color="#32DADB"/>
</linearGradient>
<linearGradient id="paint2_linear_3_41" x1="1" y1="66" x2="134" y2="66" gradientUnits="userSpaceOnUse">
<stop stop-color="#48CAE4"/>
<stop offset="1" stop-color="#32DADB"/>
</linearGradient>
<linearGradient id="paint3_linear_3_41" x1="1" y1="66" x2="134" y2="66" gradientUnits="userSpaceOnUse">
<stop stop-color="#48CAE4"/>
<stop offset="1" stop-color="#32DADB"/>
</linearGradient>
<linearGradient id="paint4_linear_3_41" x1="1" y1="66" x2="134" y2="66" gradientUnits="userSpaceOnUse">
<stop stop-color="#48CAE4"/>
<stop offset="1" stop-color="#32DADB"/>
</linearGradient>
<linearGradient id="paint5_linear_3_41" x1="1" y1="66" x2="134" y2="66" gradientUnits="userSpaceOnUse">
<stop stop-color="#48CAE4"/>
<stop offset="1" stop-color="#32DADB"/>
</linearGradient>
<linearGradient id="paint6_linear_3_41" x1="1" y1="66" x2="134" y2="66" gradientUnits="userSpaceOnUse">
<stop stop-color="#48CAE4"/>
<stop offset="1" stop-color="#32DADB"/>
</linearGradient>
<linearGradient id="paint7_linear_3_41" x1="1" y1="66" x2="134" y2="66" gradientUnits="userSpaceOnUse">
<stop stop-color="#48CAE4"/>
<stop offset="1" stop-color="#32DADB"/>
</linearGradient>
<linearGradient id="paint8_linear_3_41" x1="1" y1="66" x2="134" y2="66" gradientUnits="userSpaceOnUse">
<stop stop-color="#48CAE4"/>
<stop offset="1" stop-color="#32DADB"/>
</linearGradient>
<linearGradient id="paint9_linear_3_41" x1="1" y1="66" x2="134" y2="66" gradientUnits="userSpaceOnUse">
<stop stop-color="#48CAE4"/>
<stop offset="1" stop-color="#32DADB"/>
</linearGradient>
<linearGradient id="paint10_linear_3_41" x1="1" y1="66" x2="134" y2="66" gradientUnits="userSpaceOnUse">
<stop stop-color="#48CAE4"/>
<stop offset="1" stop-color="#32DADB"/>
</linearGradient>
<linearGradient id="paint11_linear_3_41" x1="1" y1="66" x2="134" y2="66" gradientUnits="userSpaceOnUse">
<stop stop-color="#48CAE4"/>
<stop offset="1" stop-color="#32DADB"/>
</linearGradient>
</defs>
</svg>
